<svg xmlns="http://www.w3.org/2000/svg" xmlns:xlink="http://www.w3.org/1999/xlink" width="42" height="42" viewBox="0 0 42 42">
  <defs>
    <clipPath id="clip-path">
      <rect width="42" height="42" fill="none"/>
    </clipPath>
  </defs>
  <g id="Component_276_3" data-name="Component 276 – 3" clip-path="url(#clip-path)">
    <path id="Path_5262" data-name="Path 5262" d="M301.369,461H274.631A7.639,7.639,0,0,1,267,453.369V426.631A7.639,7.639,0,0,1,274.631,419h26.738A7.639,7.639,0,0,1,309,426.631v26.738A7.639,7.639,0,0,1,301.369,461Z" transform="translate(-267 -419)" fill="#342f39"/>
    <path id="Path_5280" data-name="Path 5280" d="M288,435.182a5.4,5.4,0,1,0,5.4,5.4A5.4,5.4,0,0,0,288,435.182Zm0,9.7a4.3,4.3,0,1,1,4.3-4.3A4.3,4.3,0,0,1,288,444.879Z" transform="translate(-267 -419)" fill="#fff"/>
    <path id="Path_5281" data-name="Path 5281" d="M295.006,428.838h-10.59v-.36h.388a.686.686,0,1,0,0-1.359h-2.715a.685.685,0,1,0,0,1.359h.388v.36h-1.484a4.735,4.735,0,0,0-4.734,4.734v14.014a4.735,4.735,0,0,0,4.734,4.734h14.013a4.734,4.734,0,0,0,4.734-4.734V433.572A4.734,4.734,0,0,0,295.006,428.838ZM288,446.935a6.355,6.355,0,0,1-5.054-10.209l-.016-.013-.362-.363a.319.319,0,0,1,0-.453l.528-.529a.322.322,0,0,1,.454,0l.352.353a6.356,6.356,0,1,1,4.1,11.214Zm9.658-13.363h-3.586a.663.663,0,0,1-.663-.662v-2.084a.663.663,0,0,1,.663-.662h.84a3.415,3.415,0,0,1,3.344,2.743A.579.579,0,0,1,297.658,433.572Z" transform="translate(-267 -419)" fill="#fff"/>
  </g>
</svg>
