<svg xmlns="http://www.w3.org/2000/svg" xmlns:xlink="http://www.w3.org/1999/xlink" width="42" height="42" viewBox="0 0 42 42">
  <defs>
    <clipPath id="clip-path">
      <rect width="42" height="42" fill="none"/>
    </clipPath>
  </defs>
  <g id="Component_279_3" data-name="Component 279 – 3" clip-path="url(#clip-path)">
    <path id="Path_5265" data-name="Path 5265" d="M457.369,461H430.631A7.639,7.639,0,0,1,423,453.369V426.631A7.639,7.639,0,0,1,430.631,419h26.738A7.639,7.639,0,0,1,465,426.631v26.738A7.639,7.639,0,0,1,457.369,461Z" transform="translate(-423 -419)" fill="#342f39"/>
    <path id="Path_5332" data-name="Path 5332" d="M444.147,427.4a12.587,12.587,0,0,0-10.578,19.411l-1.092,2.875-1.213,3.194,3.192-1.213,2.879-1.1a12.588,12.588,0,1,0,6.812-23.172Zm0,22.925a10.288,10.288,0,0,1-5.591-1.645l-.957-.617-2.448.93.929-2.446-.619-.959a10.335,10.335,0,1,1,8.686,4.737Z" transform="translate(-423 -419)" fill="#fff"/>
    <path id="Path_5333" data-name="Path 5333" d="M447.249,442.484a.623.623,0,0,0-.838.016c-1.267,1.071-2.688,1.435-4.476-.3-1.729-1.787-1.367-3.209-.294-4.477a.622.622,0,0,0,.015-.836l-2.36-2.362a.533.533,0,0,0-.795.058c-1.482,1.876-1.476,4.73,2.355,8.62h0l.008.008.009.008.022.021a.241.241,0,0,0,.022.023l.008.008.008.008h0c3.888,3.83,6.743,3.837,8.62,2.356a.533.533,0,0,0,.056-.8Z" transform="translate(-423 -419)" fill="#fff"/>
    <path id="Path_5334" data-name="Path 5334" d="M447.635,440.839l1.026.007a5.426,5.426,0,0,0-5.366-5.367l.008,1.028A4.381,4.381,0,0,1,447.635,440.839Z" transform="translate(-423 -419)" fill="#fff"/>
    <path id="Path_5335" data-name="Path 5335" d="M443.312,433.457l.007,1.026a6.407,6.407,0,0,1,6.336,6.336l1.029.009A7.455,7.455,0,0,0,443.312,433.457Z" transform="translate(-423 -419)" fill="#fff"/>
    <path id="Path_5336" data-name="Path 5336" d="M444.9,439.243a2.462,2.462,0,0,1,.726,1.731l1.028.007a3.526,3.526,0,0,0-3.492-3.492l.007,1.028A2.459,2.459,0,0,1,444.9,439.243Z" transform="translate(-423 -419)" fill="#fff"/>
  </g>
</svg>
