<svg xmlns="http://www.w3.org/2000/svg" xmlns:xlink="http://www.w3.org/1999/xlink" width="42" height="42" viewBox="0 0 42 42">
  <defs>
    <clipPath id="clip-path">
      <rect width="42" height="42" fill="none"/>
    </clipPath>
  </defs>
  <g id="Component_278_3" data-name="Component 278 – 3" clip-path="url(#clip-path)">
    <path id="Path_5264" data-name="Path 5264" d="M405.369,461H378.631A7.639,7.639,0,0,1,371,453.369V426.631A7.639,7.639,0,0,1,378.631,419h26.738A7.639,7.639,0,0,1,413,426.631v26.738A7.639,7.639,0,0,1,405.369,461Z" transform="translate(-371 -419)" fill="#342f39"/>
    <path id="Path_5267" data-name="Path 5267" d="M389.345,438.891c.575-1.832.819-2.624,2.38-3.862s1.8-3.354,2.606-4.386a4.326,4.326,0,0,0,.574-2.8c.041-.395,1.4-.992,2.556,1.107s-.143,5.305-.693,6.2-1.251,2.726.546,2.569a12.064,12.064,0,0,1,5.252.788c1.125.506,2.164,1.1,1.983,2.393a4.537,4.537,0,0,1-.554,1.4c-.021.236.728.486.587,1.582a3.358,3.358,0,0,1-.85,1.93c-.172.2.471.38-.024,1.9a2.41,2.41,0,0,1-1.056,1.424c-.246.184.078,1.062-.708,1.969-.507.586-1.559.97-3.467,1.251a20.255,20.255,0,0,1-6.971-.264,15.4,15.4,0,0,0-4.627-1.433v-9.9a3.633,3.633,0,0,0,.857-.136C388.349,440.408,388.871,440.4,389.345,438.891Z" transform="translate(-371 -419)" fill="#fff"/>
    <rect id="Rectangle_1358" data-name="Rectangle 1358" width="6.756" height="11.811" transform="translate(8.4 20.609)" fill="#fff"/>
  </g>
</svg>
