<svg xmlns="http://www.w3.org/2000/svg" xmlns:xlink="http://www.w3.org/1999/xlink" width="42" height="42" viewBox="0 0 42 42">
  <defs>
    <clipPath id="clip-path">
      <rect width="42" height="42" fill="none"/>
    </clipPath>
  </defs>
  <g id="Component_277_4" data-name="Component 277 – 4" clip-path="url(#clip-path)">
    <path id="Path_5263" data-name="Path 5263" d="M353.369,461H326.631A7.639,7.639,0,0,1,319,453.369V426.631A7.639,7.639,0,0,1,326.631,419h26.738A7.639,7.639,0,0,1,361,426.631v26.738A7.639,7.639,0,0,1,353.369,461Z" transform="translate(-319 -419)" fill="#342f39"/>
    <path id="Path_5273" data-name="Path 5273" d="M353.16,435.3l-3.7.524a7.1,7.1,0,0,0-6.625-4.553c-3.523,0-6.086,2.691-6.819,6.152-2.852.531-4.951-1.991-4.951-1.991s-1.508,3.978,3.161,7.237a.451.451,0,0,0,.163.07c-2.594,4.011-7.552,4.528-7.552,4.528s20.663,6.457,22.84-7.671l3.48.442-2.787-2.369Z" transform="translate(-319 -419)" fill="#fff"/>
  </g>
</svg>
