<svg xmlns="http://www.w3.org/2000/svg" xmlns:xlink="http://www.w3.org/1999/xlink" width="291.201" height="308.266" viewBox="0 0 291.201 308.266"><defs><clipPath id="a"><rect width="291.201" height="308.266" fill="none"/></clipPath><clipPath id="b"><rect width="49.122" height="49.122" fill="none"/></clipPath><clipPath id="c"><rect width="242.201" height="91.288" fill="none"/></clipPath></defs><g clip-path="url(#a)"><g transform="translate(0 17.288)" clip-path="url(#b)"><rect width="49.122" height="49.122" fill="none"/><path d="M35.748,7.093V35.748H7.093V7.093Zm0-4.093H7.093A4.106,4.106,0,0,0,3,7.093V35.748a4.106,4.106,0,0,0,4.093,4.093H35.748a4.106,4.106,0,0,0,4.093-4.093V7.093A4.106,4.106,0,0,0,35.748,3Z" transform="translate(3.14 3.14)" fill="#010101" fill-rule="evenodd" opacity="0.54"/></g><g transform="translate(49)" clip-path="url(#c)"><text transform="translate(-0.392 59.286)" fill="#009688" font-size="34" font-family="Roboto-Medium, Roboto" font-weight="500"><tspan x="0" y="0">Sweep and Mop</tspan></text><path d="M5.153,0H237.048A5.113,5.113,0,0,1,242.2,5.072V86.216a5.113,5.113,0,0,1-5.153,5.072H5.153A5.113,5.113,0,0,1,0,86.216V5.072A5.113,5.113,0,0,1,5.153,0Z" fill="none"/></g><g transform="translate(0 72.326)"><g transform="translate(0 17.288)" clip-path="url(#b)"><rect width="49.122" height="49.122" fill="none"/><path d="M35.748,7.093V35.748H7.093V7.093Zm0-4.093H7.093A4.106,4.106,0,0,0,3,7.093V35.748a4.106,4.106,0,0,0,4.093,4.093H35.748a4.106,4.106,0,0,0,4.093-4.093V7.093A4.106,4.106,0,0,0,35.748,3Z" transform="translate(3.14 3.14)" fill="#010101" fill-rule="evenodd" opacity="0.54"/></g><g transform="translate(49)" clip-path="url(#c)"><text transform="translate(18.455 59.286)" fill="#009688" font-size="34" font-family="Roboto-Medium, Roboto" font-weight="500"><tspan x="0" y="0">Laundry</tspan></text><path d="M5.153,0H237.048A5.113,5.113,0,0,1,242.2,5.072V86.216a5.113,5.113,0,0,1-5.153,5.072H5.153A5.113,5.113,0,0,1,0,86.216V5.072A5.113,5.113,0,0,1,5.153,0Z" fill="none"/></g></g><g transform="translate(0 144.652)"><g transform="translate(0 17.288)" clip-path="url(#b)"><rect width="49.122" height="49.122" fill="none"/><path d="M35.748,7.093V35.748H7.093V7.093Zm0-4.093H7.093A4.106,4.106,0,0,0,3,7.093V35.748a4.106,4.106,0,0,0,4.093,4.093H35.748a4.106,4.106,0,0,0,4.093-4.093V7.093A4.106,4.106,0,0,0,35.748,3Z" transform="translate(3.14 3.14)" fill="#010101" fill-rule="evenodd" opacity="0.54"/></g><g transform="translate(49)" clip-path="url(#c)"><text transform="translate(11.944 59.286)" fill="#009688" font-size="34" font-family="Roboto-Medium, Roboto" font-weight="500"><tspan x="0" y="0">Wash the car</tspan></text><path d="M5.153,0H237.048A5.113,5.113,0,0,1,242.2,5.072V86.216a5.113,5.113,0,0,1-5.153,5.072H5.153A5.113,5.113,0,0,1,0,86.216V5.072A5.113,5.113,0,0,1,5.153,0Z" fill="none"/></g></g><g transform="translate(0 216.978)"><g transform="translate(0 17.288)" clip-path="url(#b)"><rect width="49.122" height="49.122" fill="none"/><path d="M35.748,7.093V35.748H7.093V7.093Zm0-4.093H7.093A4.106,4.106,0,0,0,3,7.093V35.748a4.106,4.106,0,0,0,4.093,4.093H35.748a4.106,4.106,0,0,0,4.093-4.093V7.093A4.106,4.106,0,0,0,35.748,3Z" transform="translate(3.14 3.14)" fill="#010101" fill-rule="evenodd" opacity="0.54"/></g><g transform="translate(49)" clip-path="url(#c)"><text transform="translate(10.809 59.286)" fill="#009688" font-size="34" font-family="Roboto-Medium, Roboto" font-weight="500"><tspan x="0" y="0">Shave the cat</tspan></text><path d="M5.153,0H237.048A5.113,5.113,0,0,1,242.2,5.072V86.216a5.113,5.113,0,0,1-5.153,5.072H5.153A5.113,5.113,0,0,1,0,86.216V5.072A5.113,5.113,0,0,1,5.153,0Z" fill="none"/></g></g></g></svg>