<svg xmlns="http://www.w3.org/2000/svg" xmlns:xlink="http://www.w3.org/1999/xlink" width="121.723" height="121.723" viewBox="0 0 121.723 121.723"><defs><radialGradient id="a" cx="95.869" cy="13.71" r="81.904" gradientTransform="translate(191.737 27.419) rotate(180)" gradientUnits="userSpaceOnUse"><stop offset="0" stop-color="#ccc"/><stop offset="0.259" stop-color="#d1d1d1"/><stop offset="0.59" stop-color="#e1e1e1"/><stop offset="0.959" stop-color="#fbfbfb"/><stop offset="1" stop-color="#fff"/></radialGradient><radialGradient id="b" cx="24.403" cy="105.07" r="80.417" gradientUnits="userSpaceOnUse"><stop offset="0" stop-color="#e6e6e6"/><stop offset="0.4" stop-color="#ebebeb"/><stop offset="0.911" stop-color="#fbfbfb"/><stop offset="1" stop-color="#fff"/></radialGradient></defs><g transform="translate(0.5 0.5)"><ellipse cx="60.362" cy="60.362" rx="60.362" ry="60.362" stroke="#000" stroke-width="1" fill="url(#a)"/><ellipse cx="59.265" cy="59.265" rx="59.265" ry="59.265" transform="translate(1.096 1.096)" fill="url(#b)"/><ellipse cx="52.481" cy="52.481" rx="52.481" ry="52.481" transform="translate(7.881 7.881)" fill="#e91e63"/><g transform="translate(29.001 33.79)"><path d="M216.155,153.13a11.144,11.144,0,0,1-3.64-7.564,11.457,11.457,0,0,1-5.253,1.259,11.593,11.593,0,0,1-6.02-1.683,11.439,11.439,0,0,0-9.9,11.3v10.849a50.942,50.942,0,0,0,14.341,2.462v-3.994A12.9,12.9,0,0,1,216.155,153.13Z" transform="translate(-191.34 -126.084)" fill="#fff"/><path d="M203.927,153.628a9.1,9.1,0,0,0,5.506-1.844,11.113,11.113,0,0,1,3.525-5.987,9.755,9.755,0,0,0,.092-1.292,9.116,9.116,0,1,0-9.123,9.123Z" transform="translate(-188.018 -135.394)" fill="#fff"/><path d="M226.7,145.135a11.65,11.65,0,0,1-11.389.4,11.051,11.051,0,0,1-3.627,7.576A12.889,12.889,0,0,1,222.3,165.76v3.994a50.664,50.664,0,0,0,14.421-2.462V156.443A11.433,11.433,0,0,0,226.7,145.135Z" transform="translate(-171.904 -126.09)" fill="#fff"/><path d="M215.144,151.7a8.985,8.985,0,0,0,5.584,1.924,9.117,9.117,0,1,0-9.121-9.123,8.924,8.924,0,0,0,.1,1.363A11.138,11.138,0,0,1,215.144,151.7Z" transform="translate(-171.982 -135.394)" fill="#fff"/><path d="M221.681,149.966a11.613,11.613,0,0,1-12.063.012,11.438,11.438,0,0,0-9.9,11.3v10.849a52.486,52.486,0,0,0,31.978,0V161.275A11.433,11.433,0,0,0,221.681,149.966Z" transform="translate(-183.339 -121.476)" fill="#fff"/><ellipse cx="9.12" cy="9.12" rx="9.12" ry="9.12" transform="translate(23.175 9.652)" fill="#fff"/></g></g></svg>