<svg xmlns="http://www.w3.org/2000/svg" xmlns:xlink="http://www.w3.org/1999/xlink" width="1329.6" height="193.487" viewBox="0 0 1329.6 193.487"><defs><clipPath id="a"><rect width="1329.6" height="160.789" fill="none"/></clipPath><clipPath id="b"><rect width="1183.079" height="122.026" fill="none"/></clipPath><radialGradient id="c" cx="95.869" cy="13.71" r="81.904" gradientTransform="translate(191.737 27.419) rotate(180)" gradientUnits="userSpaceOnUse"><stop offset="0" stop-color="#ccc"/><stop offset="0.259" stop-color="#d1d1d1"/><stop offset="0.59" stop-color="#e1e1e1"/><stop offset="0.959" stop-color="#fbfbfb"/><stop offset="1" stop-color="#fff"/></radialGradient><radialGradient id="d" cx="24.403" cy="105.07" r="80.417" gradientUnits="userSpaceOnUse"><stop offset="0" stop-color="#e6e6e6"/><stop offset="0.4" stop-color="#ebebeb"/><stop offset="0.911" stop-color="#fbfbfb"/><stop offset="1" stop-color="#fff"/></radialGradient><radialGradient id="e" cx="95.869" cy="13.71" r="81.904" xlink:href="#c"/><radialGradient id="f" cx="24.403" cy="105.07" r="80.417" xlink:href="#d"/><radialGradient id="g" cx="95.868" cy="13.71" r="81.904" xlink:href="#c"/><radialGradient id="i" cx="95.868" cy="13.71" r="81.904" xlink:href="#c"/><radialGradient id="j" cx="24.629" cy="106.042" r="81.16" xlink:href="#d"/><radialGradient id="k" cx="95.869" cy="13.71" r="81.904" xlink:href="#c"/><radialGradient id="m" cx="95.869" cy="13.71" r="81.904" xlink:href="#c"/><clipPath id="o"><rect width="1215.4" height="32.4" fill="none"/></clipPath></defs><g transform="translate(-359.4 -835.913)"><g transform="translate(359.4 835.913)" clip-path="url(#a)"><g transform="translate(76.4 13.643)" clip-path="url(#b)"><g transform="translate(212.923 0.802)"><g transform="translate(0)"><ellipse cx="60.362" cy="60.362" rx="60.362" ry="60.362" stroke="#000" stroke-width="1" fill="url(#c)"/><ellipse cx="59.265" cy="59.265" rx="59.265" ry="59.265" transform="translate(1.096 1.096)" fill="url(#d)"/><circle cx="52.481" cy="52.481" r="52.481" transform="translate(7.881 7.881)" fill="#e91e63"/></g><g transform="translate(34.737 25.653)"><path d="M151.389,146.71a18.449,18.449,0,0,1-19.16.019A18.166,18.166,0,0,0,116.5,164.67V181.9a83.342,83.342,0,0,0,50.789,0V164.67A18.16,18.16,0,0,0,151.389,146.71Z" transform="translate(-116.505 -116.449)" fill="#fff"/><ellipse cx="14.485" cy="14.485" rx="14.485" ry="14.485" transform="translate(10.793)" fill="#fff"/></g></g><g transform="translate(0.5 0.802)"><ellipse cx="60.362" cy="60.362" rx="60.362" ry="60.362" stroke="#000" stroke-width="1" fill="url(#e)"/><ellipse cx="59.265" cy="59.265" rx="59.265" ry="59.265" transform="translate(1.096 1.096)" fill="url(#f)"/><ellipse cx="52.481" cy="52.481" rx="52.481" ry="52.481" transform="translate(7.881 7.881)" fill="#e91e63"/><g transform="translate(29.001 33.79)"><path d="M216.155,153.13a11.144,11.144,0,0,1-3.64-7.564,11.457,11.457,0,0,1-5.253,1.259,11.593,11.593,0,0,1-6.02-1.683,11.439,11.439,0,0,0-9.9,11.3v10.849a50.942,50.942,0,0,0,14.341,2.462v-3.994A12.9,12.9,0,0,1,216.155,153.13Z" transform="translate(-191.34 -126.084)" fill="#fff"/><path d="M203.927,153.628a9.1,9.1,0,0,0,5.506-1.844,11.113,11.113,0,0,1,3.525-5.987,9.755,9.755,0,0,0,.092-1.292,9.116,9.116,0,1,0-9.123,9.123Z" transform="translate(-188.018 -135.394)" fill="#fff"/><path d="M226.7,145.135a11.65,11.65,0,0,1-11.389.4,11.051,11.051,0,0,1-3.627,7.576A12.889,12.889,0,0,1,222.3,165.76v3.994a50.664,50.664,0,0,0,14.421-2.462V156.443A11.433,11.433,0,0,0,226.7,145.135Z" transform="translate(-171.904 -126.09)" fill="#fff"/><path d="M215.144,151.7a8.985,8.985,0,0,0,5.584,1.924,9.117,9.117,0,1,0-9.121-9.123,8.924,8.924,0,0,0,.1,1.363A11.138,11.138,0,0,1,215.144,151.7Z" transform="translate(-171.982 -135.394)" fill="#fff"/><path d="M221.681,149.966a11.613,11.613,0,0,1-12.063.012,11.438,11.438,0,0,0-9.9,11.3v10.849a52.486,52.486,0,0,0,31.978,0V161.275A11.433,11.433,0,0,0,221.681,149.966Z" transform="translate(-183.339 -121.476)" fill="#fff"/><ellipse cx="9.12" cy="9.12" rx="9.12" ry="9.12" transform="translate(23.175 9.652)" fill="#fff"/></g></g><g transform="translate(1061.769 0.503)"><g transform="translate(0)"><ellipse cx="60.362" cy="60.362" rx="60.362" ry="60.362" stroke="#000" stroke-width="1" fill="url(#g)"/><ellipse cx="59.265" cy="59.265" rx="59.265" ry="59.265" transform="translate(1.096 1.096)" fill="url(#d)"/><circle cx="52.481" cy="52.481" r="52.481" transform="translate(7.881 7.881)" fill="#e91e63"/></g><g transform="translate(32.086 27.181)"><path d="M283.637,261.033a1.509,1.509,0,0,0,1.505,1.505h4.816a1.51,1.51,0,0,0,1.505-1.505v-3.549a14.239,14.239,0,0,0,3.068-1.269l2.508,2.508a1.512,1.512,0,0,0,2.129,0l3.406-3.406a1.512,1.512,0,0,0,0-2.129l-2.509-2.508a14.245,14.245,0,0,0,1.269-3.068h3.549a1.511,1.511,0,0,0,1.505-1.505v-4.816a1.51,1.51,0,0,0-1.505-1.505h-3.549a14.245,14.245,0,0,0-1.269-3.068l2.509-2.508a1.512,1.512,0,0,0,0-2.129l-3.406-3.406a1.512,1.512,0,0,0-2.129,0l-2.508,2.508a14.241,14.241,0,0,0-3.068-1.269v-3.549a1.51,1.51,0,0,0-1.505-1.505h-4.816a1.509,1.509,0,0,0-1.505,1.505v3.549a14.242,14.242,0,0,0-3.068,1.269l-2.509-2.508a1.512,1.512,0,0,0-2.129,0l-3.406,3.406a1.512,1.512,0,0,0,0,2.129l2.508,2.508a14.244,14.244,0,0,0-1.269,3.068h-3.549a1.509,1.509,0,0,0-1.505,1.505v4.816a1.51,1.51,0,0,0,1.505,1.505h3.549a14.244,14.244,0,0,0,1.269,3.068l-2.508,2.508a1.512,1.512,0,0,0,0,2.129l3.406,3.406a1.512,1.512,0,0,0,2.129,0l2.509-2.508a14.24,14.24,0,0,0,3.068,1.269ZM279.412,243.7a8.138,8.138,0,1,1,8.137,8.139A8.136,8.136,0,0,1,279.412,243.7Z" transform="translate(-268.712 -224.861)" fill="#fff"/><path d="M315.738,247.431h-2.927a11.779,11.779,0,0,0-1.048-2.532l2.07-2.069a1.245,1.245,0,0,0,0-1.756l-2.81-2.81a1.245,1.245,0,0,0-1.756,0l-2.071,2.069a11.667,11.667,0,0,0-2.532-1.046v-2.929a1.245,1.245,0,0,0-1.241-1.242h-3.973a1.246,1.246,0,0,0-1.241,1.242v2.929a11.75,11.75,0,0,0-2.532,1.046l-2.068-2.069a1.245,1.245,0,0,0-1.756,0l-2.81,2.81a1.245,1.245,0,0,0,0,1.756l2.069,2.069a11.671,11.671,0,0,0-1.046,2.532h-2.929a1.246,1.246,0,0,0-1.242,1.242v3.973a1.246,1.246,0,0,0,1.242,1.242h2.929a11.67,11.67,0,0,0,1.046,2.532l-2.069,2.069a1.245,1.245,0,0,0,0,1.756l2.81,2.81a1.245,1.245,0,0,0,1.756,0l2.068-2.068a11.749,11.749,0,0,0,2.532,1.046v2.929a1.246,1.246,0,0,0,1.241,1.242h3.973a1.245,1.245,0,0,0,1.241-1.242V262.03a11.666,11.666,0,0,0,2.532-1.046l2.071,2.068a1.245,1.245,0,0,0,1.756,0l2.81-2.81a1.245,1.245,0,0,0,0-1.756l-2.07-2.069a11.778,11.778,0,0,0,1.048-2.532h2.927a1.245,1.245,0,0,0,1.242-1.242v-3.973A1.245,1.245,0,0,0,315.738,247.431Zm-14.3,9.942a6.714,6.714,0,1,1,6.714-6.714A6.714,6.714,0,0,1,301.438,257.373Z" transform="translate(-252.298 -215.064)" fill="#fff"/><path d="M299.372,254.582h-2.391a9.657,9.657,0,0,0-.854-2.068l1.689-1.689a1.017,1.017,0,0,0,0-1.435l-2.3-2.3a1.018,1.018,0,0,0-1.433,0l-1.691,1.691a9.656,9.656,0,0,0-2.067-.856v-2.391a1.019,1.019,0,0,0-1.015-1.015h-3.246a1.019,1.019,0,0,0-1.015,1.015v2.391a9.656,9.656,0,0,0-2.067.856l-1.691-1.691a1.018,1.018,0,0,0-1.433,0l-2.3,2.3a1.017,1.017,0,0,0,0,1.435l1.691,1.689a9.566,9.566,0,0,0-.856,2.068h-2.391A1.017,1.017,0,0,0,275,255.595v3.245a1.018,1.018,0,0,0,1.015,1.015H278.4a9.551,9.551,0,0,0,.856,2.067l-1.691,1.691a1.015,1.015,0,0,0,0,1.433l2.3,2.3a1.015,1.015,0,0,0,1.433,0l1.691-1.689a9.65,9.65,0,0,0,2.067.854V268.9a1.017,1.017,0,0,0,1.015,1.015h3.246a1.018,1.018,0,0,0,1.015-1.015v-2.391a9.65,9.65,0,0,0,2.067-.854l1.691,1.689a1.015,1.015,0,0,0,1.433,0l2.3-2.3a1.015,1.015,0,0,0,0-1.433l-1.689-1.691a9.641,9.641,0,0,0,.854-2.067h2.391a1.018,1.018,0,0,0,1.015-1.015v-3.245A1.017,1.017,0,0,0,299.372,254.582Zm-11.68,8.12a5.484,5.484,0,1,1,5.484-5.484A5.485,5.485,0,0,1,287.692,262.7Z" transform="translate(-262.709 -206.081)" fill="#fff"/></g></g><g transform="translate(425.302 0.5)"><g transform="translate(0)"><ellipse cx="60.362" cy="60.362" rx="60.362" ry="60.362" stroke="#010101" stroke-width="1" fill="url(#i)"/><g transform="translate(0 0.548)"><ellipse cx="59.814" cy="59.814" rx="59.814" ry="59.814" fill="url(#j)"/><circle cx="52.966" cy="52.966" r="52.966" transform="translate(6.847 6.847)" fill="#e91e63"/></g></g><g transform="translate(29.344 30.535)"><path d="M42.319,254.5V277.41H57.8V258.667H72.378V277.41H87.858V254.5l-22.77-22.909Z" transform="translate(-34.619 -221.781)" fill="#fff"/><path d="M67.793,227.468h-5.42V238.2l5.42,5.157Z" transform="translate(-15.465 -225.721)" fill="#fff"/><path d="M98.156,254.968,70.487,227.3a2.726,2.726,0,0,0-3.7,0L39.117,254.968a2.535,2.535,0,0,0,0,3.572h0a2.535,2.535,0,0,0,3.572,0l25.947-25.949L94.584,258.54a2.526,2.526,0,0,0,3.572-3.572Z" transform="translate(-38.38 -226.575)" fill="#fff"/></g></g><g transform="translate(849.432 0.534)"><g transform="translate(0)"><ellipse cx="60.362" cy="60.362" rx="60.362" ry="60.362" stroke="#060606" stroke-width="1" fill="url(#k)"/><ellipse cx="59.265" cy="59.265" rx="59.265" ry="59.265" transform="translate(1.096 1.096)" fill="url(#d)"/><circle cx="52.481" cy="52.481" r="52.481" transform="translate(7.881 7.881)" fill="#e91e63"/></g><g transform="translate(26.02 26.231)"><path d="M379.143,313.875a34.866,34.866,0,1,0,34.866,34.866A34.906,34.906,0,0,0,379.143,313.875Zm0,65.716a30.85,30.85,0,1,1,30.85-30.85A30.884,30.884,0,0,1,379.143,379.591Z" transform="translate(-344.277 -313.875)" fill="#fff"/><path d="M380.809,351.014l-14.7-9.111V321.178a2.688,2.688,0,0,0-5.377,0v22.249a2.634,2.634,0,0,0,1.154,2.19l.156.1,15.934,9.873a2.691,2.691,0,1,0,2.835-4.575Z" transform="translate(-328.562 -309.457)" fill="#fff"/></g></g><g transform="translate(637.639 0.556)"><g transform="translate(0)"><ellipse cx="60.362" cy="60.362" rx="60.362" ry="60.362" stroke="#000" stroke-width="1" fill="url(#m)"/><ellipse cx="59.265" cy="59.265" rx="59.265" ry="59.265" transform="translate(1.096 1.096)" fill="url(#d)"/><circle cx="52.481" cy="52.481" r="52.481" transform="translate(7.881 7.881)" fill="#e91e63"/></g><g transform="translate(37.68 33.318)"><path d="M238.15,458H198.879V406.1H238.15v14.386l3.1-4.7V403H195.779v58.1h45.472v-21.31l-3.1,4.692Z" transform="translate(-195.779 -403)" fill="#fff"/><path d="M209.978,451.407l9.394-4.941,23.223-34.51-8.36-5.625-23.221,34.51Zm2.333-9.33,1.415,1.3,1.3.524,1.062,1.109,1.654.717-4.464,2.239-1.644-1.107Z" transform="translate(-182.217 -399.818)" fill="#fff"/><rect width="31.282" height="3.666" transform="translate(6.908 8.676)" fill="#fff"/><rect width="31.282" height="3.666" transform="translate(6.908 16.496)" fill="#fff"/><rect width="19.307" height="3.666" transform="translate(6.908 24.317)" fill="#fff"/><rect width="19.307" height="3.666" transform="translate(6.908 32.138)" fill="#fff"/><rect width="19.307" height="3.666" transform="translate(6.908 39.958)" fill="#fff"/></g></g></g></g><g transform="translate(417 997)" clip-path="url(#o)"><text font-size="20" font-family="RobotoSlab-Regular, Roboto Slab"><tspan x="19.964" y="21">CONTACTS</tspan></text><text transform="translate(214.28)" font-size="20" font-family="RobotoSlab-Regular, Roboto Slab"><tspan x="30.145" y="21">PROFILE</tspan></text><text transform="translate(428.56)" font-size="20" font-family="RobotoSlab-Regular, Roboto Slab"><tspan x="19.964" y="21">CONTACTS</tspan></text><text transform="translate(642.84)" font-size="20" font-family="RobotoSlab-Regular, Roboto Slab"><tspan x="21.453" y="21">MY TASKS</tspan></text><text transform="translate(857.12)" font-size="20" font-family="RobotoSlab-Regular, Roboto Slab"><tspan x="17.747" y="21">CALENDAR</tspan></text><text transform="translate(1071.4)" font-size="20" font-family="RobotoSlab-Regular, Roboto Slab"><tspan x="23.108" y="21">SETTINGS</tspan></text></g></g></svg>