<svg xmlns="http://www.w3.org/2000/svg" xmlns:xlink="http://www.w3.org/1999/xlink" width="271" height="115.834" viewBox="0 0 271 115.834"><defs><clipPath id="a"><rect width="271" height="115.834" fill="none"/></clipPath><clipPath id="b"><rect width="143" height="47" fill="none"/></clipPath><filter id="c" x="0" y="68.834" width="143" height="47" filterUnits="userSpaceOnUse"><feOffset dy="2" input="SourceAlpha"/><feGaussianBlur stdDeviation="1" result="d"/><feFlood flood-color="#9c27b0" flood-opacity="0.302"/><feComposite operator="in" in2="d"/><feComposite in="SourceGraphic"/></filter><filter id="f" x="-447" y="69" width="143" height="47" filterUnits="userSpaceOnUse"><feOffset dy="2" input="SourceAlpha"/><feGaussianBlur stdDeviation="1" result="g"/><feFlood flood-color="#9c27b0" flood-opacity="0.302"/><feComposite operator="in" in2="g"/><feComposite in="SourceGraphic"/></filter></defs><g clip-path="url(#a)"><g transform="translate(0 68.834)" clip-path="url(#b)"><g transform="translate(-973 -3001)"><g transform="matrix(1, 0, 0, 1, 973, 2932.17)" filter="url(#c)"><path d="M20,0h97a20,20,0,0,1,20,20v1a20,20,0,0,1-20,20H20A20,20,0,0,1,0,21V20A20,20,0,0,1,20,0Z" transform="translate(3 69.83)" fill="#e91e63"/></g><text transform="translate(1011 3031.166)" fill="#fff" font-size="22" font-family="Roboto-Regular, Roboto"><tspan x="0" y="0">LOG IN</tspan></text></g></g><g transform="translate(-447 69)" clip-path="url(#b)"><g transform="translate(-973 -3001)"><g transform="matrix(1, 0, 0, 1, 1420, 2932)" filter="url(#f)"><path d="M20,0h97a20,20,0,0,1,20,20v1a20,20,0,0,1-20,20H20A20,20,0,0,1,0,21V20A20,20,0,0,1,20,0Z" transform="translate(-444 70)" fill="#e91e63"/></g><text transform="translate(1011 3031.166)" fill="#fff" font-size="22" font-family="Roboto-Regular, Roboto"><tspan x="0" y="0">LOG IN</tspan></text></g></g></g></svg>