<svg xmlns="http://www.w3.org/2000/svg" xmlns:xlink="http://www.w3.org/1999/xlink" width="225" height="231.081" viewBox="0 0 225 231.081"><defs><clipPath id="a"><rect width="225" height="231.081" fill="none"/></clipPath><filter id="b" x="12.487" y="8.324" width="200.027" height="206.108" filterUnits="userSpaceOnUse"><feOffset dy="8" input="SourceAlpha"/><feGaussianBlur stdDeviation="8" result="c"/><feFlood flood-color="#9c27b0" flood-opacity="0.361"/><feComposite operator="in" in2="c"/><feComposite in="SourceGraphic"/></filter></defs><g clip-path="url(#a)"><g transform="translate(36.486 24.324)"><g transform="matrix(1, 0, 0, 1, -36.49, -24.32)" filter="url(#b)"><rect width="152.027" height="158.108" rx="3" transform="translate(36.49 24.32)" fill="#e91e63"/></g></g><text transform="translate(67.232 154.556)" fill="#fff" font-size="18" font-family="Roboto-Regular, Roboto"><tspan x="0" y="0">NEW TASK</tspan></text><path d="M0,19A19,19,0,1,1,19,38,19.054,19.054,0,0,1,0,19Zm3.8,0A15.2,15.2,0,1,0,19,3.8,15.248,15.248,0,0,0,3.8,19Zm13.3,1.9V9.5h2.851v9.878l8.552,5.134-1.52,2.471Z" transform="translate(94.257 65.375)" fill="#fff"/></g></svg>