<svg xmlns="http://www.w3.org/2000/svg" xmlns:xlink="http://www.w3.org/1999/xlink" width="225" height="231.081" viewBox="0 0 225 231.081"><defs><clipPath id="a"><rect width="225" height="231.081" fill="none"/></clipPath><filter id="b" x="12.486" y="8.324" width="200.027" height="206.108" filterUnits="userSpaceOnUse"><feOffset dy="8" input="SourceAlpha"/><feGaussianBlur stdDeviation="8" result="c"/><feFlood flood-color="#9c27b0" flood-opacity="0.361"/><feComposite operator="in" in2="c"/><feComposite in="SourceGraphic"/></filter><clipPath id="d"><rect width="102.8" height="133.581" fill="none"/></clipPath></defs><g clip-path="url(#a)"><g transform="translate(36.486 24.324)"><g transform="matrix(1, 0, 0, 1, -36.49, -24.32)" filter="url(#b)"><rect width="152.027" height="158.108" rx="3" transform="translate(36.49 24.32)" fill="#e91e63"/></g></g><g transform="translate(60.8 36.7)" clip-path="url(#d)"><path d="M634,5794.1h6.914v-7.038H634Zm0,14.065h6.914v-7.03H634Zm0-28.132h6.914V5773H634Zm13.828,14.067h48.394v-7.038H647.828Zm0,14.065h48.394v-7.03H647.828Zm0-35.167v7.035h48.394V5773Z" transform="translate(-616.014 -5747.225)" fill="#fff"/><text transform="translate(49.2 121.3)" fill="#fff" font-size="18" font-family="Roboto-Regular, Roboto"><tspan x="-49.948" y="0">MY CHORES</tspan></text></g></g></svg>