<svg xmlns="http://www.w3.org/2000/svg" xmlns:xlink="http://www.w3.org/1999/xlink" width="121.723" height="121.723" viewBox="0 0 121.723 121.723"><defs><clipPath id="a"><rect width="121.723" height="121.723" fill="none"/></clipPath><radialGradient id="b" cx="95.869" cy="13.71" r="81.904" gradientTransform="translate(191.737 27.419) rotate(180)" gradientUnits="userSpaceOnUse"><stop offset="0" stop-color="#ccc"/><stop offset="0.259" stop-color="#d1d1d1"/><stop offset="0.59" stop-color="#e1e1e1"/><stop offset="0.959" stop-color="#fbfbfb"/><stop offset="1" stop-color="#fff"/></radialGradient><radialGradient id="c" cx="24.403" cy="105.07" r="80.417" gradientUnits="userSpaceOnUse"><stop offset="0" stop-color="#e6e6e6"/><stop offset="0.4" stop-color="#ebebeb"/><stop offset="0.911" stop-color="#fbfbfb"/><stop offset="1" stop-color="#fff"/></radialGradient></defs><g transform="translate(0 0)" clip-path="url(#a)"><g transform="translate(0.5 0.5)"><ellipse cx="60.362" cy="60.362" rx="60.362" ry="60.362" stroke="#060606" stroke-width="1" fill="url(#b)"/><ellipse cx="59.265" cy="59.265" rx="59.265" ry="59.265" transform="translate(1.096 1.096)" fill="url(#c)"/><circle cx="52.481" cy="52.481" r="52.481" transform="translate(7.881 7.881)" fill="#e91e63"/></g><g transform="translate(26.52 26.731)"><path d="M379.143,313.875a34.866,34.866,0,1,0,34.866,34.866A34.906,34.906,0,0,0,379.143,313.875Zm0,65.716a30.85,30.85,0,1,1,30.85-30.85A30.884,30.884,0,0,1,379.143,379.591Z" transform="translate(-344.277 -313.875)" fill="#fff"/><path d="M380.809,351.014l-14.7-9.111V321.178a2.688,2.688,0,0,0-5.377,0v22.249a2.634,2.634,0,0,0,1.154,2.19l.156.1,15.934,9.873a2.691,2.691,0,1,0,2.835-4.575Z" transform="translate(-328.562 -309.457)" fill="#fff"/></g></g></svg>