<svg xmlns="http://www.w3.org/2000/svg" xmlns:xlink="http://www.w3.org/1999/xlink" width="121.723" height="121.723" viewBox="0 0 121.723 121.723"><defs><clipPath id="a"><rect width="121.723" height="121.723" fill="none"/></clipPath><radialGradient id="b" cx="95.869" cy="13.71" r="81.904" gradientTransform="translate(191.737 27.419) rotate(180)" gradientUnits="userSpaceOnUse"><stop offset="0" stop-color="#ccc"/><stop offset="0.259" stop-color="#d1d1d1"/><stop offset="0.59" stop-color="#e1e1e1"/><stop offset="0.959" stop-color="#fbfbfb"/><stop offset="1" stop-color="#fff"/></radialGradient><radialGradient id="c" cx="24.403" cy="105.07" r="80.417" gradientUnits="userSpaceOnUse"><stop offset="0" stop-color="#e6e6e6"/><stop offset="0.4" stop-color="#ebebeb"/><stop offset="0.911" stop-color="#fbfbfb"/><stop offset="1" stop-color="#fff"/></radialGradient></defs><g transform="translate(0 0)" clip-path="url(#a)"><g transform="translate(0.5 0.5)"><ellipse cx="60.362" cy="60.362" rx="60.362" ry="60.362" stroke="#000" stroke-width="1" fill="url(#b)"/><ellipse cx="59.265" cy="59.265" rx="59.265" ry="59.265" transform="translate(1.096 1.096)" fill="url(#c)"/><circle cx="52.481" cy="52.481" r="52.481" transform="translate(7.881 7.881)" fill="#e91e63"/></g><g transform="translate(35.237 26.153)"><path d="M151.389,146.71a18.449,18.449,0,0,1-19.16.019A18.166,18.166,0,0,0,116.5,164.67V181.9a83.342,83.342,0,0,0,50.789,0V164.67A18.16,18.16,0,0,0,151.389,146.71Z" transform="translate(-116.505 -116.449)" fill="#fff"/><ellipse cx="14.485" cy="14.485" rx="14.485" ry="14.485" transform="translate(10.793)" fill="#fff"/></g></g></svg>