<svg xmlns="http://www.w3.org/2000/svg" xmlns:xlink="http://www.w3.org/1999/xlink" width="121.723" height="121.723" viewBox="0 0 121.723 121.723"><defs><clipPath id="a"><rect width="121.723" height="121.723" fill="none"/></clipPath><radialGradient id="b" cx="95.868" cy="13.71" r="81.904" gradientTransform="translate(191.737 27.419) rotate(180)" gradientUnits="userSpaceOnUse"><stop offset="0" stop-color="#ccc"/><stop offset="0.259" stop-color="#d1d1d1"/><stop offset="0.59" stop-color="#e1e1e1"/><stop offset="0.959" stop-color="#fbfbfb"/><stop offset="1" stop-color="#fff"/></radialGradient><radialGradient id="c" cx="24.629" cy="106.042" r="81.16" gradientUnits="userSpaceOnUse"><stop offset="0" stop-color="#e6e6e6"/><stop offset="0.4" stop-color="#ebebeb"/><stop offset="0.911" stop-color="#fbfbfb"/><stop offset="1" stop-color="#fff"/></radialGradient></defs><g transform="translate(0 0)" clip-path="url(#a)"><g transform="translate(0.5 0.5)"><ellipse cx="60.362" cy="60.362" rx="60.362" ry="60.362" stroke="#010101" stroke-width="1" fill="url(#b)"/><g transform="translate(0 0.548)"><ellipse cx="59.814" cy="59.814" rx="59.814" ry="59.814" fill="url(#c)"/><circle cx="52.966" cy="52.966" r="52.966" transform="translate(6.847 6.847)" fill="#e91e63"/></g></g><g transform="translate(29.844 31.035)"><path d="M42.319,254.5V277.41H57.8V258.667H72.378V277.41H87.858V254.5l-22.77-22.909Z" transform="translate(-34.619 -221.781)" fill="#fff"/><path d="M67.793,227.468h-5.42V238.2l5.42,5.157Z" transform="translate(-15.465 -225.721)" fill="#fff"/><path d="M98.156,254.968,70.487,227.3a2.726,2.726,0,0,0-3.7,0L39.117,254.968a2.535,2.535,0,0,0,0,3.572h0a2.535,2.535,0,0,0,3.572,0l25.947-25.949L94.584,258.54a2.526,2.526,0,0,0,3.572-3.572Z" transform="translate(-38.38 -226.575)" fill="#fff"/></g></g></svg>