<svg xmlns="http://www.w3.org/2000/svg" xmlns:xlink="http://www.w3.org/1999/xlink" width="121.723" height="121.723" viewBox="0 0 121.723 121.723"><defs><clipPath id="a"><rect width="121.723" height="121.723" fill="none"/></clipPath><radialGradient id="b" cx="95.869" cy="13.71" r="81.904" gradientTransform="translate(191.737 27.419) rotate(180)" gradientUnits="userSpaceOnUse"><stop offset="0" stop-color="#ccc"/><stop offset="0.259" stop-color="#d1d1d1"/><stop offset="0.59" stop-color="#e1e1e1"/><stop offset="0.959" stop-color="#fbfbfb"/><stop offset="1" stop-color="#fff"/></radialGradient><radialGradient id="c" cx="24.403" cy="105.07" r="80.417" gradientUnits="userSpaceOnUse"><stop offset="0" stop-color="#e6e6e6"/><stop offset="0.4" stop-color="#ebebeb"/><stop offset="0.911" stop-color="#fbfbfb"/><stop offset="1" stop-color="#fff"/></radialGradient></defs><g transform="translate(0 0)" clip-path="url(#a)"><g transform="translate(0.5 0.5)"><ellipse cx="60.362" cy="60.362" rx="60.362" ry="60.362" stroke="#000" stroke-width="1" fill="url(#b)"/><ellipse cx="59.265" cy="59.265" rx="59.265" ry="59.265" transform="translate(1.096 1.096)" fill="url(#c)"/><circle cx="52.481" cy="52.481" r="52.481" transform="translate(7.881 7.881)" fill="#e91e63"/></g><g transform="translate(38.18 33.818)"><path d="M238.15,458H198.879V406.1H238.15v14.386l3.1-4.7V403H195.779v58.1h45.472v-21.31l-3.1,4.692Z" transform="translate(-195.779 -403)" fill="#fff"/><path d="M209.978,451.407l9.394-4.941,23.223-34.51-8.36-5.625-23.221,34.51Zm2.333-9.33,1.415,1.3,1.3.524,1.062,1.109,1.654.717-4.464,2.239-1.644-1.107Z" transform="translate(-182.217 -399.818)" fill="#fff"/><rect width="31.282" height="3.666" transform="translate(6.908 8.676)" fill="#fff"/><rect width="31.282" height="3.666" transform="translate(6.908 16.496)" fill="#fff"/><rect width="19.307" height="3.666" transform="translate(6.908 24.317)" fill="#fff"/><rect width="19.307" height="3.666" transform="translate(6.908 32.138)" fill="#fff"/><rect width="19.307" height="3.666" transform="translate(6.908 39.958)" fill="#fff"/></g></g></svg>