<svg xmlns="http://www.w3.org/2000/svg" xmlns:xlink="http://www.w3.org/1999/xlink" width="121.723" height="121.723" viewBox="0 0 121.723 121.723"><defs><clipPath id="a"><rect width="121.723" height="121.723" fill="none"/></clipPath><radialGradient id="b" cx="95.868" cy="13.71" r="81.904" gradientTransform="translate(191.737 27.419) rotate(180)" gradientUnits="userSpaceOnUse"><stop offset="0" stop-color="#ccc"/><stop offset="0.259" stop-color="#d1d1d1"/><stop offset="0.59" stop-color="#e1e1e1"/><stop offset="0.959" stop-color="#fbfbfb"/><stop offset="1" stop-color="#fff"/></radialGradient><radialGradient id="c" cx="24.403" cy="105.07" r="80.417" gradientUnits="userSpaceOnUse"><stop offset="0" stop-color="#e6e6e6"/><stop offset="0.4" stop-color="#ebebeb"/><stop offset="0.911" stop-color="#fbfbfb"/><stop offset="1" stop-color="#fff"/></radialGradient></defs><g transform="translate(0 0)" clip-path="url(#a)"><g transform="translate(0.5 0.5)"><ellipse cx="60.362" cy="60.362" rx="60.362" ry="60.362" stroke="#000" stroke-width="1" fill="url(#b)"/><ellipse cx="59.265" cy="59.265" rx="59.265" ry="59.265" transform="translate(1.096 1.096)" fill="url(#c)"/><circle cx="52.481" cy="52.481" r="52.481" transform="translate(7.881 7.881)" fill="#e91e63"/></g><g transform="translate(32.586 27.681)"><path d="M283.637,261.033a1.509,1.509,0,0,0,1.505,1.505h4.816a1.51,1.51,0,0,0,1.505-1.505v-3.549a14.239,14.239,0,0,0,3.068-1.269l2.508,2.508a1.512,1.512,0,0,0,2.129,0l3.406-3.406a1.512,1.512,0,0,0,0-2.129l-2.509-2.508a14.245,14.245,0,0,0,1.269-3.068h3.549a1.511,1.511,0,0,0,1.505-1.505v-4.816a1.51,1.51,0,0,0-1.505-1.505h-3.549a14.245,14.245,0,0,0-1.269-3.068l2.509-2.508a1.512,1.512,0,0,0,0-2.129l-3.406-3.406a1.512,1.512,0,0,0-2.129,0l-2.508,2.508a14.241,14.241,0,0,0-3.068-1.269v-3.549a1.51,1.51,0,0,0-1.505-1.505h-4.816a1.509,1.509,0,0,0-1.505,1.505v3.549a14.242,14.242,0,0,0-3.068,1.269l-2.509-2.508a1.512,1.512,0,0,0-2.129,0l-3.406,3.406a1.512,1.512,0,0,0,0,2.129l2.508,2.508a14.244,14.244,0,0,0-1.269,3.068h-3.549a1.509,1.509,0,0,0-1.505,1.505v4.816a1.51,1.51,0,0,0,1.505,1.505h3.549a14.244,14.244,0,0,0,1.269,3.068l-2.508,2.508a1.512,1.512,0,0,0,0,2.129l3.406,3.406a1.512,1.512,0,0,0,2.129,0l2.509-2.508a14.24,14.24,0,0,0,3.068,1.269ZM279.412,243.7a8.138,8.138,0,1,1,8.137,8.139A8.136,8.136,0,0,1,279.412,243.7Z" transform="translate(-268.712 -224.861)" fill="#fff"/><path d="M315.738,247.431h-2.927a11.779,11.779,0,0,0-1.048-2.532l2.07-2.069a1.245,1.245,0,0,0,0-1.756l-2.81-2.81a1.245,1.245,0,0,0-1.756,0l-2.071,2.069a11.667,11.667,0,0,0-2.532-1.046v-2.929a1.245,1.245,0,0,0-1.241-1.242h-3.973a1.246,1.246,0,0,0-1.241,1.242v2.929a11.75,11.75,0,0,0-2.532,1.046l-2.068-2.069a1.245,1.245,0,0,0-1.756,0l-2.81,2.81a1.245,1.245,0,0,0,0,1.756l2.069,2.069a11.671,11.671,0,0,0-1.046,2.532h-2.929a1.246,1.246,0,0,0-1.242,1.242v3.973a1.246,1.246,0,0,0,1.242,1.242h2.929a11.67,11.67,0,0,0,1.046,2.532l-2.069,2.069a1.245,1.245,0,0,0,0,1.756l2.81,2.81a1.245,1.245,0,0,0,1.756,0l2.068-2.068a11.749,11.749,0,0,0,2.532,1.046v2.929a1.246,1.246,0,0,0,1.241,1.242h3.973a1.245,1.245,0,0,0,1.241-1.242V262.03a11.666,11.666,0,0,0,2.532-1.046l2.071,2.068a1.245,1.245,0,0,0,1.756,0l2.81-2.81a1.245,1.245,0,0,0,0-1.756l-2.07-2.069a11.778,11.778,0,0,0,1.048-2.532h2.927a1.245,1.245,0,0,0,1.242-1.242v-3.973A1.245,1.245,0,0,0,315.738,247.431Zm-14.3,9.942a6.714,6.714,0,1,1,6.714-6.714A6.714,6.714,0,0,1,301.438,257.373Z" transform="translate(-252.298 -215.064)" fill="#fff"/><path d="M299.372,254.582h-2.391a9.657,9.657,0,0,0-.854-2.068l1.689-1.689a1.017,1.017,0,0,0,0-1.435l-2.3-2.3a1.018,1.018,0,0,0-1.433,0l-1.691,1.691a9.656,9.656,0,0,0-2.067-.856v-2.391a1.019,1.019,0,0,0-1.015-1.015h-3.246a1.019,1.019,0,0,0-1.015,1.015v2.391a9.656,9.656,0,0,0-2.067.856l-1.691-1.691a1.018,1.018,0,0,0-1.433,0l-2.3,2.3a1.017,1.017,0,0,0,0,1.435l1.691,1.689a9.566,9.566,0,0,0-.856,2.068h-2.391A1.017,1.017,0,0,0,275,255.595v3.245a1.018,1.018,0,0,0,1.015,1.015H278.4a9.551,9.551,0,0,0,.856,2.067l-1.691,1.691a1.015,1.015,0,0,0,0,1.433l2.3,2.3a1.015,1.015,0,0,0,1.433,0l1.691-1.689a9.65,9.65,0,0,0,2.067.854V268.9a1.017,1.017,0,0,0,1.015,1.015h3.246a1.018,1.018,0,0,0,1.015-1.015v-2.391a9.65,9.65,0,0,0,2.067-.854l1.691,1.689a1.015,1.015,0,0,0,1.433,0l2.3-2.3a1.015,1.015,0,0,0,0-1.433l-1.689-1.691a9.641,9.641,0,0,0,.854-2.067h2.391a1.018,1.018,0,0,0,1.015-1.015v-3.245A1.017,1.017,0,0,0,299.372,254.582Zm-11.68,8.12a5.484,5.484,0,1,1,5.484-5.484A5.485,5.485,0,0,1,287.692,262.7Z" transform="translate(-262.709 -206.081)" fill="#fff"/></g></g></svg>